<svg xmlns="http://www.w3.org/2000/svg" width="512" height="512" id="call">
  <path fill="#B3B3B3" d="M435.275 435.031c-16.04 2.568-31.708 6.902-47.543 10.444-7.084 1.574-14.443 2.083-21.582 3.429-4.188.798-8.536 2.265-12.869 2.865 1.323-.418 2.517-.79 3.345-1.102 5.549-2.137 11.319-3.58 17.013-5.269 9.351-2.782 19.21-4.166 27.496-9.678 2.281-1.513 1.703-5.997-1.543-5.663-9.335.974-18.875 2.243-28.142 3.848-10.4 1.809-20.511 4.964-30.895 6.849-1.368.251-2.752.502-4.136.753 6.438-1.825 12.886-3.695 19.181-5.945 3.146-1.117 8.741-2.568 8.012-6.918-.213-1.292-1.688-2.272-2.927-2.234-10.392.297-20.578 3.3-30.833 4.835-5.216.775-10.431 1.49-15.639 2.266 1.263-.654 2.319-1.475 2.882-2.524.98-1.832-.197-4.85-2.63-4.576-21.917 2.501-43.521 6.735-65.072 11.281 2.76-1.308 5.352-2.874 7.64-4.872 2.053-1.787.373-5.208-2.144-5.192-10.088.06-20.319 2.173-30.362 3.261-11.433 1.239-22.782 3.17-34.033 5.564-3.923.844-7.86 1.597-11.798 2.341a691.847 691.847 0 0 0 12.543-3.976c3.77-1.238 2.204-6.545-1.62-5.868-8.643 1.544-17.492 1.961-26.173 3.353-9.244 1.474-18.221 4.295-27.328 6.378-2.509.578-5.01 1.141-7.519 1.695 6.249-2.053 12.445-4.242 18.375-7.077 2.728-1.315 1.406-5.824-1.536-5.671-6.12.312-11.897 2.447-17.827 3.755-6.522 1.438-12.969 2.759-19.4 4.409.183-1.642-.775-3.391-2.904-3.3-8.043.35-16.664 2.966-24.266 5.496-6.69 2.229-14.816 3.109-20.449 7.557-1.764 1.391-.76 4.652 1.338 5.078 4.326.875 8.423-.638 12.566-1.787 7.207-2.006 14.816-3.321 22.221-4.492a85.904 85.904 0 0 0 3.109-.539c-2.516.904-5.025 1.779-7.572 2.584-4.386 1.368-8.803 2.396-12.802 4.759-1.778 1.05-2.188 4.326 0 5.246 6.12 2.599 12.597-.654 18.564-2.753 9.769-3.429 20.852-5.047 30.963-7.319 5.603-1.256 11.182-2.601 16.77-3.916-9.396 2.92-18.724 6.044-27.876 9.655-2.995 1.177-2.866 6.112.813 5.967 5.018-.19 9.753-1.315 14.527-2.843 5.724-1.848 11.274-3.322 17.165-4.6 11.646-2.523 23.3-4.994 35.052-6.917 12.362-2.022 24.479-4.926 36.945-6.447 5.322-.653 10.651-1.391 15.965-2.015-.357.077-.714.16-1.049.221-6.621 1.209-13.067 3.262-19.704 4.47-5.839 1.064-11.867 3.962-17.5 5.839-5.36 1.779-11.122 2.63-16.055 5.412-3.178 1.802-.898 6.119 2.34 5.549 29.435-5.093 58.49-12.283 87.825-17.895-5.998 1.604-12.003 3.238-17.872 5.216-3.14 1.063-6.233 2.212-9.329 3.337-5.496 1.08-10.969 2.402-15.538 5.01-3.063 1.748-.973 6.348 2.342 5.549 5.268-1.261 10.376-3.032 15.47-4.887 3.93-.724 7.868-1.346 11.364-2.259 11.22-2.934 22.539-5.488 33.965-7.442 10.772-1.832 21.415-4.044 32.271-5.558.326-.045.662-.098.996-.151-15.447 4.378-30.583 9.365-45.817 14.444-2.311.76-3.261 4.325-.729 5.55 4.622 2.257 12.513-1.316 17.104-2.464 11.327-2.836 22.821-4.721 34.308-6.812 10.924-1.983 21.733-4.379 32.574-6.583-5.443 1.832-10.992 3.291-16.382 5.442-2.988 1.194-6.53 1.803-8.636 4.433-1.521 1.9-.89 4.158 1.345 5.069 5.717 2.342 11.586 1.415 17.423 0 8.972-2.15 18.018-3.588 27.162-4.743 8.013-1.018 16.056-3.618 23.909-5.504 8.863-2.113 17.758-4.111 26.759-5.557 3.862-.617 2.22-6.477-1.611-5.861z"></path>
  <path fill="#1F8AFF" d="M121.18 97.535c-3.611 2.524-4.371 6.271-4.402 10.506-.099 10.825-2.09 22.928-4.234 33.494-1.9 9.403-4.257 18.724-6.4 28.082-1.969 8.605-4.227 17.028-4.25 25.877-.008.76.63 1.391 1.39 1.391h1.863c1.793 0 1.793-2.79 0-2.79h-.403c.372-14.823 5.945-29.845 8.795-44.373 1.536-7.853 3.215-15.478 4.067-23.452.471-4.333.835-8.682 1.306-13.022.343-3.215.184-8.408 2.136-11.562.814.548 2.236.198 2.236-1.087v-1.863c.001-.988-1.208-1.824-2.104-1.201zm20.715-17.401c.107-1.801-2.684-1.794-2.79 0-.312 5.063-1.862 9.845-1.862 14.946 0 6.165.722 12.9-.479 18.967-3.041 15.15-6.196 30.271-10.217 45.186-3.581 13.318-8.933 26.439-11.03 40.093-.844 5.45-.564 10.992-1.324 16.473-.661 4.767 1.148 10.316-2.592 14.056-1.277 1.269.699 3.246 1.969 1.969 2.424-2.417 2.926-4.151 3.169-7.595.418-6.043.896-12.011 1.033-18.062.343-14.801 6.691-29.435 10.734-43.529 4.501-15.736 7.731-31.807 10.939-47.847 1.148-5.754.585-11.829.585-17.683.002-5.799 1.515-11.242 1.865-16.974zm23.443-15.591c-3.573 5.139-3.77 11.311-4.287 17.271-.76 8.765-3.018 17.568-4.607 26.204-3.048 16.686-7.229 33.122-11.183 49.587-3.907 16.23-6.347 32.947-7.692 49.58-.714 8.856-1.156 17.728-1.931 26.583-.669 7.67-1.916 15.417-2.113 23.118-.062 1.809 2.737 1.795 2.783 0 .41-15.599 2.751-31.434 3.854-47.041a330.958 330.958 0 0 1 7.785-51.503c3.657-15.652 7.449-31.229 10.688-46.987 1.52-7.39 2.805-14.847 4.173-22.267 1.384-7.503.425-16.648 4.941-23.14 1.033-1.482-1.392-2.873-2.411-1.405zm18.42 10.004c-.76 8.765-3.314 17.165-3.649 26.052-.365 9.548-.267 18.99-1.277 28.515-2.144 20.29-7.693 40.093-12.955 59.751-4.72 17.628-6.005 35.546-7.222 53.692a520.515 520.515 0 0 1-.95 12.475c-.334 3.831-1.513 7.602-1.756 11.418-.296 4.592-.106 9.235-.106 13.835 0 4.181-1.467 7.86-1.854 11.951-.175 1.793 2.615 1.777 2.79 0 .305-3.2 1.559-6.097 1.862-9.305.457-4.851 0-9.997 0-14.878 0-2.941 1.125-5.754 1.491-8.658.608-4.728.805-9.556 1.148-14.322 1.467-20.624 3.268-40.458 8.635-60.503 4.675-17.454 9.062-34.946 11.411-52.887 1.239-9.517 1.452-19.035 1.521-28.606.075-9.769 2.874-18.914 3.701-28.53.152-1.786-2.638-1.779-2.79 0zm26.044 0c-.532 10.217-5.823 19.506-7.609 29.548-1.733 9.753-2.075 19.712-3.238 29.534-1.208 10.194-2.676 20.358-5.085 30.339-2.646 11.007-6.553 21.46-8.667 32.635-4.15 22-7.168 44.296-10.848 66.396-1.626 9.73-3.549 19.209-3.657 29.069-.106 8.841-1.824 17.394-1.824 26.227 0 1.794 2.782 1.794 2.782 0 0-8.042 1.483-15.881 1.779-23.908.456-12.217 2.494-23.953 4.501-36.011 3.679-22.044 6.583-44.326 10.969-66.242 2.037-10.141 5.801-19.72 8.218-29.754 2.273-9.457 3.331-19.134 4.623-28.75 1.384-10.384 1.726-20.86 3.565-31.191 1.703-9.578 6.766-18.069 7.283-27.891.097-1.803-2.693-1.787-2.792-.001zm13.441 25.071c-8.089 8.796-9.366 20.875-10.635 32.286-1.847 16.473-8.112 31.89-8.385 48.698-.031 1.802 2.759 1.802 2.79 0 .122-7.207 1.11-14.269 2.532-21.324 1.413-7.054 4.158-14.018 5.116-21.118 1.688-12.452 1.528-26.759 10.56-36.58 1.215-1.316-.762-3.292-1.978-1.962zm10.749 28.887c-.533 5.747-3.779 10.445-4.424 16.237-.844 7.678-.373 15.029-2.965 22.464-.592 1.703 2.099 2.432 2.691.745 2.084-5.967 2.517-11.852 2.768-18.13.311-7.602 4.037-13.95 4.728-21.316.159-1.794-2.631-1.778-2.798 0zm-29.358 71.58c-6.317 7.13-5.025 14.595-6.265 23.398-1.732 12.178-3.429 24.356-6.477 36.299-1.177 4.607-1.398 9.373-2.577 14.032-1.224 4.896-2.486 9.687-3.14 14.702-1.285 9.776-.562 19.934-.562 29.777 0 1.794 2.797 1.794 2.797 0 0-8.271-.152-16.549.161-24.812.388-10.034 4.355-19.248 5.352-29.146 1.102-10.97 4.539-22 6.12-32.977 1.383-9.518-.137-21.742 6.568-29.298 1.185-1.344-.784-3.328-1.977-1.975zm8.894 38.191c-.457 6.828-2.828 14.034-4.181 20.785a36705.83 36705.83 0 0 1-5.078 25.367c-2.958 14.815-7.223 29.838-7.48 45.026-.038 1.802 2.751 1.802 2.782 0 .274-15.706 4.828-31.472 7.899-46.828 1.695-8.454 3.382-16.906 5.078-25.368 1.24-6.21 3.352-12.642 3.771-18.982.12-1.793-2.678-1.777-2.791 0zm16.746 14.893c-.555 7.108-4.751 13.987-7.124 20.67-2.637 7.404-4.066 15.219-5.427 22.928-2.524 14.398-9.464 27.033-9.776 41.993-.037 1.802 2.752 1.786 2.79 0 .312-15.463 7.503-28.789 10.118-43.727 1.345-7.693 3.132-15.242 5.747-22.607 2.289-6.417 5.922-12.354 6.461-19.257.139-1.794-2.651-1.786-2.789 0zm9.343 23.817c-5.511 29.115-12.847 58.011-13.067 87.818-.015 1.801 2.774 1.793 2.79 0 .229-29.557 7.511-58.202 12.977-87.073.334-1.763-2.357-2.516-2.7-.745zm18.565 7.815c-.319 6.629-3.391 12.368-4.41 18.814-1.201 7.596-1.536 15.311-2.584 22.92-2.098 15.221-5.808 30.287-6.029 45.711-.022 1.802 2.76 1.802 2.791 0 .228-15.986 4.097-31.669 6.271-47.444 1.041-7.518 1.39-15.104 2.584-22.592.935-5.952 3.87-11.236 4.167-17.409.09-1.802-2.7-1.794-2.79 0zm12.087 14.885c.016-1.802-2.768-1.802-2.782 0-.091 13.98-1.482 27.885-3.132 41.758-1.657 13.805.106 27.816-2.402 41.598-.319 1.756 2.364 2.517 2.69.737 2.251-12.346 1.908-25.086 1.916-37.576 0-7.215 1.764-14.816 2.447-22.015.761-8.151 1.217-16.323 1.263-24.502zm19.543-3.718c-.243 28.926-10.802 56.612-11.159 85.583-.03 1.803 2.759 1.795 2.789 0 .365-28.986 10.917-56.642 11.16-85.583.016-1.801-2.775-1.801-2.79 0zm20.472-5.588c-.76 16.702-5.26 33.465-5.587 50.235-.122 6.293-.973 12.618-1.49 18.883-.828 9.942-1.642 19.886-2.242 29.845-.137 2.243-2.091 12.43.707 13.882 1.589.828 3.003-1.581 1.406-2.41.828.434.334-.273.319-1.361-.031-1.269.007-2.546.046-3.823.121-3.748.372-7.503.623-11.243.638-9.587 1.459-19.157 2.258-28.743.479-5.755.753-11.562 1.513-17.279 1.056-7.921 1.489-15.889 2.204-23.84.73-8.073 2.662-16.062 3.026-24.145.083-1.802-2.706-1.794-2.783-.001zm20.465-20.471c-.084 21.141-1.825 42.222-3.726 63.264-1.968 21.703-5.435 43.285-5.579 65.125-.015 1.802 2.782 1.794 2.782 0 .151-21.848 3.702-43.398 5.588-65.125 1.824-21.05 3.648-42.107 3.717-63.264.015-1.795-2.782-1.795-2.782 0zm13.957-5.572c-.015-1.803-2.805-1.803-2.798 0 .092 23.626 3.254 47.254.441 70.804-1.429 11.951-3.102 23.855-3.847 35.882-.761 11.987-1.801 24.189-2.099 36.215-.029.115-.075.221-.075.366v1.862c0 1.793 2.767 1.793 2.79 0 .205-11.943 1.589-23.886 2.036-35.836.441-12.027 2.183-23.984 3.665-35.919 3.065-24.471-.022-48.805-.113-73.374zm18.602 7.434c-.014-1.795-2.805-1.795-2.789 0 .038 11.569.531 23.141.434 34.702-.1 11.54-1.924 22.814-2.928 34.263-1.998 22.904-4.843 45.703-4.948 68.729-.008 1.793 2.781 1.793 2.789 0 .115-23.012 2.882-45.84 4.949-68.729 1.042-11.464 2.714-22.707 2.927-34.263.22-11.561-.396-23.132-.434-34.702zm20.464-1.862c-.008-1.795-2.789-1.795-2.789 0 .09 21.999 1.596 43.673-.891 65.619-1.391 12.278-3.018 24.518-5.39 36.642-1.673 8.56-3.892 16.747-4.629 25.367a1.245 1.245 0 0 0-.251.761v3.726c0 1.793 2.752 1.793 2.789 0 .199-10.901 3.225-21.135 5.3-31.754 2.067-10.619 3.405-21.369 4.667-32.104 2.692-22.851 1.293-45.322 1.194-68.257zm13.957 14.892c-.008 8.863-.061 17.721-.531 26.577-.556 10.193-2.631 20.114-3.726 30.225-2.029 18.854-5.048 37.781-5.048 56.695 0 1.794 2.79 1.794 2.79 0 0-18.86 3.2-37.888 5.048-56.695.92-9.305 2.858-18.411 3.565-27.754.729-9.663.691-19.37.691-29.048.002-1.802-2.789-1.802-2.789 0zm18.602 11.167c-.016 5.352-1.862 10.194-1.862 15.387v22.615c0 13.547-3.466 26.631-3.717 40.139-.038 1.803 2.759 1.795 2.797 0 .244-13.508 3.719-26.592 3.719-40.139v-22.615c0-5.078 1.847-10.141 1.854-15.387.007-1.801-2.782-1.801-2.791 0zm17.683 18.594c0-1.794-2.798-1.794-2.798 0 0 18.107.98 36.338-5.533 53.602-.624 1.68 2.067 2.402 2.697.737 6.599-17.5 5.634-35.971 5.634-54.339z"></path>
  <g fill="#0077BF">
    <path d="M332.749 418.185c-6.522 0-12.825-.714-18.725-2.129-25.861-6.164-51.996-16.952-75.584-31.175-7.473-4.509-14.057-10.483-20.42-16.261-3.816-3.459-7.769-7.039-11.904-10.315-10.894-8.629-20.738-17.006-30.081-25.634-22.563-20.822-42.45-47.597-57.532-77.441-1.627-3.239-3.999-5.74-6.287-8.166-2.19-2.31-4.25-4.492-5.587-7.176-2.737-5.458-5.763-10.726-8.689-15.819l-2.387-4.166c-6.271-11.023-9.936-24.607-11.897-34.057-2.615-12.55-5.116-27.04-1.733-40.312 3.489-13.661 9.115-23.368 17.294-36.604 11.153-18.039 29.168-33.501 56.718-48.66l.555-.304.219-.608c.274-.813 1.422-3.466 4.365-3.466.532 0 1.094.091 1.672.266 2.737.843 5.565.912 8.309.973 2.988.061 5.801.129 8.302 1.156 1.369.555 2.751 1.087 4.143 1.634 3.323 1.285 6.766 2.63 9.92 4.219 11.609 5.846 19.91 12.019 25.383 18.845 6.766 8.454 12.786 17.758 18.61 26.759l3.079 4.751c.463.708.973 1.445 1.505 2.189 1.923 2.752 4.112 5.861 4.241 8.864.153 3.611 2.608 16.109 4.896 19.644 1.026 1.604 1.156 3.224.357 4.683-.958 1.771-3.117 3.01-5.245 3.01-1.263 0-3.025-.426-4.35-2.463-2.363-3.649-3.041-8.082-3.762-12.756-.73-4.744-1.482-9.655-4.158-13.768a1424.91 1424.91 0 0 0-18.625-27.93c-6.781-9.943-16.573-18.046-27.557-22.813-5.678-2.471-11.122-3.398-16.397-4.295-2.113-.357-4.234-.722-6.371-1.178l-.791-.175-.624.51a5.587 5.587 0 0 1-.896.616c-22.319 12.148-46.47 27.451-56.459 48.911-1.619 3.482-3.505 6.834-5.321 10.065-4.828 8.575-9.799 17.446-9.83 28.948-.038 14.215 2.19 27.671 6.615 39.986 3.268 9.115 7.419 17.166 11.821 25.688 1.346 2.615 2.706 5.245 4.044 7.928 2.014 4.021 4.721 7.055 7.335 9.989 1.209 1.361 2.432 2.736 3.618 4.241 1.695 2.121 2.912 4.607 4.204 7.238 1.094 2.227 2.234 4.531 3.695 6.644 3.275 4.735 6.256 9.79 9.13 14.687 4.303 7.343 8.757 14.931 14.406 21.703l2.378 2.858c8.195 9.867 15.933 19.173 25.285 27.756 9.973 9.137 18.327 16.336 26.303 22.653 3.847 3.04 7.663 6.644 11.349 10.126 5.883 5.564 11.974 11.319 18.731 15.394 21.446 12.932 43.634 23.026 65.939 30.005 7.982 2.501 16.572 3.764 25.535 3.764 16.648 0 34.201-4.304 50.75-12.438 10.271-5.048 19.065-11.594 29.374-21.863 2.151-2.15 4.607-4.22 6.979-6.226 4.759-4.014 9.669-8.172 13.09-13.585.578-.92 1.338-1.596 2.258-2.021l1.072-.487-.107-1.187c-.828-9.205-3.823-31.326-13.767-37.895-2.333-1.536-4.379-4.266-6.18-6.675l-.768-1.019c-3.071-4.037-7.192-6.949-11.184-9.762-1.397-.996-2.782-1.976-4.112-2.987-17.781-13.646-37.652-22-55.958-23.528-3.542-.296-5.275-3.314-5.161-6.157.09-2.158 1.27-4.485 4.34-4.485.167 0 .357.008.541.023 3.123.266 6.088 1.018 9.243 1.824 1.65.418 3.292.837 4.964 1.186 1.764.373 3.87.662 6.097.95 5.275.715 11.267 1.521 14.52 3.695 3.924 2.615 7.83 5.093 11.722 7.548 8.417 5.321 16.36 10.347 24.168 16.558 12.292 9.783 20.062 18.466 23.763 26.547 4.706 10.277 7.785 23.702 8.651 37.811.243 3.932-2.949 4.722-3.93 4.874l-.745.113-.41.639c-5.146 8.021-13.35 16.504-20.419 21.11-3.513 2.28-6.637 5.352-9.655 8.31-2.174 2.129-4.424 4.341-6.72 6.15-4.881 3.846-10.187 6.621-16.116 9.593-13.051 6.545-33.204 14.352-55.044 14.352z"></path>
    <path d="M292.115 303.744c-1.764 0-3.505-.212-5.176-.638-13.433-3.436-23.087-8.644-31.274-16.892-2.729-2.744-5.542-5.42-8.362-8.111-6.819-6.499-13.866-13.22-19.522-20.799-8.765-11.761-17.218-23.277-24.227-34.969-4.645-7.746-8.013-21.886-5.412-29.808 3.36-10.239 10.673-19.035 17.742-27.526l2.335-2.82c6.324-7.655 14.443-13.364 22.911-19.004.912-.608 1.817-.913 2.707-.913 2.015 0 3.931 1.657 4.645 4.029.282.913.95 4.067-2.167 6.143l-.783.524c-7.981 5.314-16.222 10.81-21.505 19.112-1.392 2.182-3.398 4.477-5.526 6.895-5.481 6.256-11.708 13.349-9.73 21.787.388 1.665.608 3.353.843 5.154.495 3.725 1.003 7.587 3.109 11.106 1.217 2.015 2.661 3.854 4.052 5.625 1.345 1.703 2.607 3.307 3.687 5.07 5.154 8.408 9.654 15.128 14.147 21.148 4.583 6.15 9.958 11.35 15.15 16.375 2.524 2.433 5.131 4.956 7.625 7.557l.821.866c6.363 6.644 13.562 14.186 23.193 16.952a27.64 27.64 0 0 0 7.603 1.08c17.742 0 32.589-17.09 43.544-31.981 1.413-1.924 3.246-2.327 4.53-2.327 2.242 0 4.53 1.286 5.42 3.049.692 1.368.486 2.866-.602 4.334-19.035 25.862-35.774 38.982-49.778 38.982zM129.837 435.038a37.32 37.32 0 0 1-1.862-.046c-10.574-.501-35.349-1.688-42.281-15.104-1.171-2.242-.601-4.053.09-5.178 1.064-1.756 3.087-2.94 5.033-2.94 1.186 0 2.828.447 3.945 2.614 5.177 10.013 31.571 10.126 32.689 10.126 1.726 0 3.261-.062 4.446-.183 2.289-.243 5.002-.76 7.816-1.528l3.816-1.034-3.39-2.021c-12.004-7.139-18.709-15.47-19.933-24.79-1.589-12.103 1.612-31.669 16.944-36.018 3.178-.897 6.348-1.36 9.412-1.36 12.094 0 22.524 7.093 28.636 19.453 7.899 16.01 6.811 27.024-3.877 39.271l-.57.608-2.219 2.478 3.321.304c1.635.152 3.299.229 4.918.229 3.231 0 6.455-.304 9.594-.896 2.136-.396 4.265-.783 6.378-1.163 8.811-1.582 17.134-3.079 25.74-5.861 10.034-3.246 27.261-10.544 29.921-22.883.723-3.337 3.337-3.693 4.432-3.693 1.833 0 3.664.858 4.782 2.242.691.858 1.422 2.334.965 4.463-3.885 18.023-25.732 26.629-41.818 31.525-15.173 4.629-28.043 6.879-39.325 6.879-7.237 0-13.896-.95-19.803-2.828l-.677-.213-.623.335c-8.688 4.651-18.098 7.212-26.5 7.212zm15.425-66.44c-6.765 0-14.169 4.242-14.671 16.153-.631 14.931 8.491 22.175 17.492 27.283 2.166 1.225 4.515 2.365 7.199 3.475l.837.334.737-.493c2.021-1.369 3.664-2.753 4.88-4.143 9.458-10.842 10.202-20.39 2.494-31.921-4.274-6.394-11.897-10.688-18.968-10.688z"></path>
    <path d="M207.446 179.393c-2.646 0-5.307-1.566-5.307-5.078v-.852l-.699-.501a4.605 4.605 0 0 1-.54-.472 5.276 5.276 0 0 1-1.369-2.349c-.524-1.931-.814-3.869-1.117-5.938-.396-2.6-.791-5.291-1.718-7.989-1.064-3.056-2.843-5.884-4.576-8.613-1.179-1.854-2.273-3.595-3.154-5.389-.768-1.559-1.445-3.353-2.16-5.253-1.063-2.797-2.151-5.702-3.641-8.027-11.472-17.964-29.101-31.016-52.4-38.778-3.224-1.072-3.954-3.991-3.611-6.165.365-2.205 1.892-4.424 4.493-4.424a5.77 5.77 0 0 1 1.764.304c22.934 7.655 40.222 19.203 52.826 35.303 3.033 3.862 5.177 8.598 7.237 13.182 2.509 5.534 5.093 11.266 9.32 15.675 4.447 4.652 6.584 14.611 7.055 21.75l.03.57.388.433c1.787 2 2.478 4.113 2.478 7.534 0 3.511-2.661 5.077-5.299 5.077zm193.963 206.529c-2.639 0-5.306-1.566-5.306-5.077 0-20.062-10.18-46.267-23.695-60.938-6.926-7.526-15.547-16.893-25.756-22.958-5.861-3.482-12.133-5.041-18.207-6.531-2.599-.645-5.298-1.314-7.936-2.12-3.186-.98-3.962-3.702-3.626-5.93.326-2.22 1.931-4.599 4.667-4.599.531 0 1.102.091 1.68.266 2.904.896 5.801 1.657 8.598 2.388 8.431 2.219 16.39 4.302 23.657 9.699 11.654 8.651 20.557 16.968 27.216 25.429 14.002 17.789 23.413 42.67 23.961 63.386l.038.417.008 1.491c0 3.51-2.661 5.077-5.299 5.077z"></path>
  </g>
</svg>
