<svg xmlns="http://www.w3.org/2000/svg" xmlns:xlink="http://www.w3.org/1999/xlink" width="41" height="40" viewBox="0 0 41 40" id="photos">
  <defs>
    <path id="e" d="M12.3818056,2.63041667 L17.1181944,2.63041667 C19.5801571,2.63041667 21.5759722,4.62623176 21.5759722,7.08819444 L21.5759722,7.08819444 C21.5759722,9.55015713 19.5801571,11.5459722 17.1181944,11.5459722 L12.3818056,11.5459722 C9.91984287,11.5459722 7.92402778,9.55015713 7.92402778,7.08819444 L7.92402778,7.08819444 C7.92402778,4.62623176 9.91984287,2.63041667 12.3818056,2.63041667 Z"></path>
    <path id="f" d="M12.3818056,17.9540278 L17.1181944,17.9540278 C19.5801571,17.9540278 21.5759722,19.9498429 21.5759722,22.4118056 L21.5759722,22.4118056 C21.5759722,24.8737682 19.5801571,26.8695833 17.1181944,26.8695833 L12.3818056,26.8695833 C9.91984287,26.8695833 7.92402778,24.8737682 7.92402778,22.4118056 L7.92402778,22.4118056 C7.92402778,19.9498429 9.91984287,17.9540278 12.3818056,17.9540278 Z"></path>
    <path id="g" d="M6.96409089,4.87450756 L11.7004798,4.87450756 C14.1624425,4.87450756 16.1582576,6.87032265 16.1582576,9.33228534 L16.1582576,9.33228534 C16.1582576,11.794248 14.1624425,13.7900631 11.7004798,13.7900631 L6.96409089,13.7900631 C4.50212821,13.7900631 2.50631311,11.794248 2.50631311,9.33228534 L2.50631311,9.33228534 C2.50631311,6.87032265 4.50212821,4.87450756 6.96409089,4.87450756 Z"></path>
    <path id="h" d="M17.7995202,15.7099369 L22.5359091,15.7099369 C24.9978718,15.7099369 26.9936869,17.705752 26.9936869,20.1677147 L26.9936869,20.1677147 C26.9936869,22.6296773 24.9978718,24.6254924 22.5359091,24.6254924 L17.7995202,24.6254924 C15.3375575,24.6254924 13.3417424,22.6296773 13.3417424,20.1677147 L13.3417424,20.1677147 C13.3417424,17.705752 15.3375575,15.7099369 17.7995202,15.7099369 Z"></path>
    <path id="i" d="M17.7995202,4.87450756 L22.5359091,4.87450756 C24.9978718,4.87450756 26.9936869,6.87032265 26.9936869,9.33228534 L26.9936869,9.33228534 C26.9936869,11.794248 24.9978718,13.7900631 22.5359091,13.7900631 L17.7995202,13.7900631 C15.3375575,13.7900631 13.3417424,11.794248 13.3417424,9.33228534 L13.3417424,9.33228534 C13.3417424,6.87032265 15.3375575,4.87450756 17.7995202,4.87450756 Z"></path>
    <path id="j" d="M6.96409089,15.7099369 L11.7004798,15.7099369 C14.1624425,15.7099369 16.1582576,17.705752 16.1582576,20.1677147 L16.1582576,20.1677147 C16.1582576,22.6296773 14.1624425,24.6254924 11.7004798,24.6254924 L6.96409089,24.6254924 C4.50212821,24.6254924 2.50631311,22.6296773 2.50631311,20.1677147 L2.50631311,20.1677147 C2.50631311,17.705752 4.50212821,15.7099369 6.96409089,15.7099369 Z"></path>
    <linearGradient id="b" x1="0%" y1="43.033%" y2="43.033%">
      <stop offset="0%" stop-color="#FFF"></stop>
      <stop offset="100%"></stop>
    </linearGradient>
    <linearGradient id="d" x1="100%" x2="0%" y1="43.033%" y2="43.033%">
      <stop offset="0%" stop-color="#FFF"></stop>
      <stop offset="100%"></stop>
    </linearGradient>
    <linearGradient id="k" x1="98.445%" x2="0%" y1="50%" y2="52.463%">
      <stop offset="0%" stop-color="#FFF" stop-opacity=".5"></stop>
      <stop offset="100%" stop-opacity=".5"></stop>
    </linearGradient>
    <rect id="a" width="13.652" height="8.916" x=".262" y="10.292" rx="4.458"></rect>
    <rect id="c" width="13.652" height="8.916" x="15.586" y="10.292" rx="4.458"></rect>
  </defs>
  <g fill="none" fill-rule="evenodd">
    <circle cx="20.5" cy="20" r="20" fill="#FFF"></circle>
    <g transform="translate(5.8 5.2)">
      <use xlink:href="#a" fill="#D783A6" style="mix-blend-mode:multiply"></use>
      <use xlink:href="#a" fill="url(#b)" fill-opacity=".25" style="mix-blend-mode:overlay"></use>
      <use xlink:href="#c" fill="#A3D063" style="mix-blend-mode:multiply"></use>
      <use xlink:href="#c" fill="url(#d)" fill-opacity=".25" style="mix-blend-mode:overlay"></use>
      <g transform="rotate(90 14.75 7.088)">
        <use xlink:href="#e" fill="#FBB230" style="mix-blend-mode:multiply"></use>
        <use xlink:href="#e" fill="url(#d)" fill-opacity=".25" style="mix-blend-mode:overlay"></use>
      </g>
      <g transform="rotate(90 14.75 22.412)">
        <use xlink:href="#f" fill="#79ABDB" style="mix-blend-mode:multiply"></use>
        <use xlink:href="#f" fill="url(#d)" fill-opacity=".25" style="mix-blend-mode:overlay"></use>
      </g>
      <g transform="rotate(45 9.332 9.332)">
        <use xlink:href="#g" fill="#F3775E" style="mix-blend-mode:multiply"></use>
        <use xlink:href="#g" fill="url(#d)" fill-opacity=".25" style="mix-blend-mode:overlay"></use>
      </g>
      <g transform="rotate(45 20.168 20.168)">
        <use xlink:href="#h" fill="#6CBFAA" style="mix-blend-mode:multiply"></use>
        <use xlink:href="#h" fill="url(#d)" fill-opacity=".25" style="mix-blend-mode:overlay"></use>
      </g>
      <g transform="rotate(135 20.168 9.332)">
        <use xlink:href="#i" fill="#EDE12C" style="mix-blend-mode:multiply"></use>
        <use xlink:href="#i" fill="url(#d)" fill-opacity=".25" style="mix-blend-mode:overlay"></use>
      </g>
      <g transform="rotate(135 9.332 20.168)">
        <use xlink:href="#j" fill="#AC8DC1" style="mix-blend-mode:multiply"></use>
        <use xlink:href="#j" fill="url(#k)" fill-opacity=".25" style="mix-blend-mode:overlay"></use>
      </g>
      <path fill="#D783A6" d="M10.3901819 10.3901819C12.1027147 10.7551965 13.4511924 12.1036742 13.816207 13.816207 12.1036742 13.4511924 10.7551965 12.1027147 10.3901819 10.3901819zM15.683793 15.683793C16.0488076 17.3963258 17.3972853 18.7448035 19.1098181 19.1098181 18.7448035 17.3972853 17.3963258 16.0488076 15.683793 15.683793zM15.683793 13.816207C16.0488076 12.1036742 17.3972853 10.7551965 19.1098181 10.3901819 18.7448035 12.1027147 17.3963258 13.4511924 15.683793 13.816207zM10.3901819 19.1098181C10.7551965 17.3972853 12.1036742 16.0488076 13.816207 15.683793 13.4511924 17.3963258 12.1027147 18.7448035 10.3901819 19.1098181z" style="mix-blend-mode:multiply"></path>
      <path fill="#D783A6" d="M9.29383912,13.0369874 C11.0063719,13.402002 12.3548497,14.7504797 12.7198643,16.4630126 C11.0073314,16.097998 9.65885371,14.7495203 9.29383912,13.0369874 Z" style="mix-blend-mode:multiply" transform="rotate(-45 11.007 14.75)"></path>
      <path fill="#D783A6" d="M16.7801357,13.0369874 C17.1451503,14.7495203 18.4936281,16.097998 20.2061609,16.4630126 C19.8411463,14.7504797 18.4926686,13.402002 16.7801357,13.0369874 Z" style="mix-blend-mode:multiply" transform="rotate(-45 18.493 14.75)"></path>
      <path fill="#D783A6" d="M13.0369874,12.7198643 C13.402002,11.0073314 14.7504797,9.65885371 16.4630126,9.29383912 C16.097998,11.0063719 14.7495203,12.3548497 13.0369874,12.7198643 Z" style="mix-blend-mode:multiply" transform="rotate(-45 14.75 11.007)"></path>
      <path fill="#D783A6" d="M13.0369874,20.2061609 C13.402002,18.4936281 14.7504797,17.1451503 16.4630126,16.7801357 C16.097998,18.4926686 14.7495203,19.8411463 13.0369874,20.2061609 Z" style="mix-blend-mode:multiply" transform="rotate(-45 14.75 18.493)"></path>
    </g>
  </g>
</svg>
